#!OML:ASF I:\Actors\actors\Patient Classification 2\Patient 1\Session 1\actor1.ASF
:FULLY-SPECIFIED
:DEGREES
132
root -0.567545 18.7391 5.34059 2.26681 -3.84585 -2.79737
lowerback 5.06134 -0.0630033 -0.241366
upperback 0.497043 -0.1294 -1.26712
thorax -2.32868 -0.067777 -1.15791
lowerneck -15.0036 -2.14783 0.316402
upperneck 31.8699 -4.71416 4.14785
head 13.3275 -1.49582 0.826215
rclavicle -8.44835e-015 1.35174e-014
rhumerus 9.16267 44.7411 -54.2311
rradius 81.3524
rwrist 0.697858
rhand 4.20634 -58.2901
rfingers 7.12502
rthumb 29.6127 -85.9468
lclavicle -8.44835e-015 1.35174e-014
lhumerus 7.27567 -35.4517 67.2858
lradius 60.4046
lwrist 4.55512
lhand -3.95477 -45.6759
lfingers 7.12502
lthumb 21.7974 -16.8834
rfemur 0 0 0
rtibia 0
rfoot 0 0
rtoes 0
lfemur -5.97787 -5.39138 -11.8002
ltibia 22.6569
lfoot -23.214 16.3915
ltoes -54.4414
133
root -0.567492 18.7378 5.3411 2.21406 -3.82671 -2.80935
lowerback 4.95307 -0.0852151 -0.564327
upperback 0.633068 -0.171313 -1.16578
thorax -2.12771 -0.0850898 -0.86937
lowerneck -15.3565 -2.14798 0.403928
upperneck 31.97 -4.72389 4.05201
head 13.4423 -1.49411 0.768768
rclavicle 1.09332e-014 -1.98785e-014
rhumerus 8.41474 45.2958 -55.0625
rradius 80.6714
rwrist 1.03993
rhand 4.18318 -58.5231
rfingers 7.12502
rthumb 29.5906 -86.1837
lclavicle 1.09332e-014 -1.98785e-014
lhumerus 7.43449 -35.3312 67.2734
lradius 60.3332
lwrist 4.51633
lhand -4.12554 -46.1231
lfingers 7.12502
lthumb 21.6334 -17.3116
rfemur 0 0 0
rtibia 0
rfoot 0 0
rtoes 0
lfemur -5.92327 -5.41593 -11.7931
ltibia 22.6577
lfoot -23.2523 16.3617
ltoes -54.3255
134
root -0.568024 18.7371 5.33973 2.16795 -3.86522 -2.75536
lowerback 4.56036 -0.146314 -1.06174
upperback 0.955876 -0.264463 -1.03208
thorax -1.57463 -0.129226 -0.447878
lowerneck -15.7142 -2.07343 0.586549
upperneck 31.8184 -4.60556 3.86194
head 13.441 -1.44335 0.676105
rclavicle -3.18055e-015 1.82882e-014
rhumerus 8.4484 46.0412 -55.3191
rradius 79.816
rwrist 1.23178
rhand 3.76936 -58.9459
rfingers 7.12502
rthumb 29.1955 -86.6758
lclavicle -3.18055e-015 1.82882e-014
lhumerus 7.82892 -34.9928 67.036
lradius 60.3359
lwrist 4.62463
lhand -4.38254 -46.4099
lfingers 7.12502
lthumb 21.3866 -17.5702
rfemur 0 0 0
rtibia 0
rfoot 0 0
rtoes 0
lfemur -5.86562 -5.40717 -11.8638
ltibia 22.6406
lfoot -23.2675 16.4076
ltoes -54.2977
135
root -0.567977 18.736 5.33723 2.10684 -3.95534 -2.65574
lowerback 4.88395 -0.135932 -1.23615
upperback 0.795526 -0.270262 -1.13457
thorax -1.91993 -0.129985 -0.454023
lowerneck -15.5967 -2.06954 0.675519
upperneck 31.8384 -4.69239 4.05087
head 13.4316 -1.44725 0.722377
rclavicle 7.95139e-016 -1.59028e-014
rhumerus 7.40656 46.9328 -56.4589
rradius 79.1585
rwrist 1.17033
rhand 2.42436 -58.9657
rfingers 7.12502
rthumb 27.9104 -86.9116
lclavicle 7.95139e-016 -1.59028e-014
lhumerus 7.54947 -35.3192 66.8619
lradius 60.5027
lwrist 4.93234
lhand -4.60651 -46.5402
lfingers 7.12502
lthumb 21.1714 -17.6762
rfemur 0 0 0
rtibia 0
rfoot 0 0
rtoes 0
lfemur -5.77551 -5.37744 -11.994
ltibia 22.6125
lfoot -23.2695 16.4844
ltoes -54.3147
136
root -0.567151 18.7336 5.33319 1.98208 -4.07718 -2.58917
lowerback 4.68763 -0.210309 -1.60953
upperback 1.09136 -0.376991 -1.06106
thorax -1.50328 -0.184059 -0.163743
lowerneck -15.8115 -1.9498 0.707821
upperneck 31.6187 -4.54914 4.13729
head 13.3832 -1.37089 0.769644
rclavicle 5.1684e-015 1.66979e-014
rhumerus 7.84218 47.3767 -56.4178
rradius 78.8834
rwrist 1.78823
rhand 3.42266 -59.8303
rfingers 7.12502
rthumb 28.8644 -87.6173
lclavicle 5.1684e-015 1.66979e-014
lhumerus 7.85393 -35.0903 66.3676
lradius 60.6382
lwrist 5.25301
lhand -4.87141 -46.7726
lfingers 7.12502
lthumb 20.917 -17.8803
rfemur 0 0 0
rtibia 0
rfoot 0 0
rtoes 0
lfemur -5.6053 -5.39849 -12.0983
ltibia 22.5873
lfoot -23.3556 16.5668
ltoes -54.2484
137
root -0.565274 18.7307 5.32866 1.84607 -4.19477 -2.61917
lowerback 4.84823 -0.258139 -1.73217
upperback 1.19627 -0.448518 -1.04267
thorax -1.48351 -0.219902 -0.0713756
lowerneck -15.8496 -1.82825 0.957793
upperneck 31.4583 -4.41418 4.0598
head 13.312 -1.29591 0.715671
rclavicle -1.54058e-014 2.14687e-014
rhumerus 7.91067 47.7666 -56.5797
rradius 79.1411
rwrist 1.26864
rhand 2.15894 -59.94
rfingers 7.12502
rthumb 27.6566 -87.9269
lclavicle -1.54058e-014 2.14687e-014
lhumerus 7.92208 -35.1493 65.8504
lradius 60.8717
lwrist 5.62953
lhand -5.08384 -47.063
lfingers 7.12502
lthumb 20.7129 -18.1484
rfemur 0 0 0
rtibia 0
rfoot 0 0
rtoes 0
lfemur -5.42741 -5.37396 -12.0881
ltibia 22.5678
lfoot -23.4445 16.5706
ltoes -54.1
138
root -0.56252 18.7299 5.32462 1.80829 -4.29216 -2.67425
lowerback 4.92332 -0.314276 -1.81882
upperback 1.27866 -0.527343 -1.00481
thorax -1.43877 -0.259661 0.0209589
lowerneck -15.7714 -1.70606 1.1649
upperneck 31.2173 -4.26644 4.01249
head 13.184 -1.22031 0.683418
rclavicle 2.16675e-014 -9.54166e-015
rhumerus 8.06741 47.2357 -56.783
rradius 79.8527
rwrist 2.99848
rhand 5.55473 -60.4438
rfingers 7.12502
rthumb 30.8989 -87.8645
lclavicle 2.16675e-014 -9.54166e-015
lhumerus 7.95087 -35.2095 65.3068
lradius 61.2239
lwrist 6.06081
lhand -5.22006 -47.2403
lfingers 7.12502
lthumb 20.582 -18.3114
rfemur 0 0 0
rtibia 0
rfoot 0 0
rtoes 0
lfemur -5.36349 -5.30319 -12.0394
ltibia 22.5556
lfoot -23.4644 16.547
ltoes -53.9842
139
root -0.558026 18.7314 5.32116 1.87246 -4.35402 -2.66379
lowerback 4.91185 -0.404138 -1.91941
upperback 1.29013 -0.650987 -0.979726
thorax -1.41746 -0.321334 0.110354
lowerneck -15.5099 -1.5515 1.35197
upperneck 30.9343 -4.03537 3.90261
head 12.9968 -1.12299 0.644412
rclavicle 3.03147e-014 -7.15625e-015
rhumerus 8.26998 47.3298 -56.8149
rradius 81.1437
rwrist 2.07712
rhand 2.53668 -60.5223
rfingers 7.12502
rthumb 28.0177 -88.4507
lclavicle 3.03147e-014 -7.15625e-015
lhumerus 7.81726 -35.2209 64.8322
lradius 61.635
lwrist 6.53842
lhand -5.30911 -47.3245
lfingers 7.12502
lthumb 20.4964 -18.3864
rfemur 0 0 0
rtibia 0
rfoot 0 0
rtoes 0
lfemur -5.425 -5.30237 -12.0686
ltibia 22.5506
lfoot -23.4553 16.6092
ltoes -53.9848
140
root -0.552637 18.734 5.31998 1.98902 -4.40579 -2.64149
lowerback 4.8186 -0.528768 -1.92839
upperback 1.26708 -0.815768 -1.01621
thorax -1.38686 -0.403664 0.0869313
lowerneck -15.214 -1.35632 1.63654
upperneck 30.7253 -3.75067 3.70993
head 12.8307 -1.00037 0.565244
rclavicle -5.66536e-015 6.36111e-015
rhumerus 8.4803 46.8867 -57.0689
rradius 82.5099
rwrist 2.45516
rhand 2.56846 -61.1879
rfingers 7.12502
rthumb 28.0481 -89.1114
lclavicle -5.66536e-015 6.36111e-015
lhumerus 7.63545 -35.25 64.2442
lradius 62.0149
lwrist 7.0053
lhand -5.3958 -47.3119
lfingers 7.12502
lthumb 20.4131 -18.3648
rfemur 0 0 0
rtibia 0
rfoot 0 0
rtoes 0
lfemur -5.5411 -5.34981 -12.1131
ltibia 22.5438
lfoot -23.4294 16.7409
ltoes -54.0759
141
root -0.548782 18.7369 5.32234 2.14218 -4.4968 -2.63237
lowerback 4.90761 -0.60878 -1.69961
upperback 1.04997 -0.921331 -1.21769
thorax -1.66497 -0.45439 -0.23918
lowerneck -14.8374 -1.20745 1.9308
upperneck 30.735 -3.62052 3.7447
head 12.75 -0.910974 0.550027
rclavicle 0 2.38542e-015
rhumerus 8.10494 46.2574 -57.9895
rradius 83.9182
rwrist 2.48974
rhand 2.19393 -61.4817
rfingers 7.12502
rthumb 27.69 -89.4632
lclavicle 0 2.38542e-015
lhumerus 7.29124 -35.6467 63.5443
lradius 62.3951
lwrist 7.3327
lhand -5.65322 -47.2453
lfingers 7.12502
lthumb 20.1657 -18.2719
rfemur 0 0 0
rtibia 0
rfoot 0 0
rtoes 0
lfemur -5.67017 -5.30751 -12.1253
ltibia 22.5357
lfoot -23.4159 16.8069
ltoes -54.1839
142
root -0.547085 18.7393 5.32623 2.29787 -4.57677 -2.62043
lowerback 4.33926 -0.738149 -1.74187
upperback 1.24412 -1.07754 -1.29703
thorax -1.14762 -0.536212 -0.297032
lowerneck -14.7684 -0.989281 2.20298
upperneck 30.5956 -3.3655 3.72188
head 12.6707 -0.775086 0.531879
rclavicle -1.92821e-014 7.95139e-016
rhumerus 8.62591 45.4646 -58.2813
rradius 85.2457
rwrist 2.14037
rhand 2.077 -61.6511
rfingers 7.12502
rthumb 27.5782 -89.6505
lclavicle -1.92821e-014 7.95139e-016
lhumerus 7.51157 -35.571 62.6906
lradius 62.6543
lwrist 7.54218
lhand -6.0728 -47.3411
lfingers 7.12502
lthumb 19.7624 -18.3258
rfemur 0 0 0
rtibia 0
rfoot 0 0
rtoes 0
lfemur -5.81005 -5.10976 -12.1091
ltibia 22.5294
lfoot -23.3499 16.7152
ltoes -54.2387
143
root -0.546268 18.7406 5.32894 2.39605 -4.57962 -2.6252
lowerback 4.19919 -0.829825 -1.67813
upperback 1.19562 -1.19608 -1.43503
thorax -1.12254 -0.595444 -0.469867
lowerneck -14.5766 -0.847977 2.54373
upperneck 30.6622 -3.22329 3.62169
head 12.65 -0.688188 0.457215
rclavicle 7.65321e-015 7.15625e-015
rhumerus 8.05476 45.0448 -59.3583
rradius 86.3819
rwrist 3.03035
rhand 1.54943 -61.4685
rfingers 7.12502
rthumb 27.0736 -89.5475
lclavicle 7.65321e-015 7.15625e-015
lhumerus 7.3596 -35.7228 62.1683
lradius 62.9362
lwrist 7.77518
lhand -6.1903 -47.5566
lfingers 7.12502
lthumb 19.6494 -18.5296
rfemur 0 0 0
rtibia 0
rfoot 0 0
rtoes 0
lfemur -5.92903 -4.84734 -12.063
ltibia 22.5303
lfoot -23.2064 16.5364
ltoes -54.2976
144
root -0.545463 18.7415 5.33104 2.44252 -4.5369 -2.60828
lowerback 4.18003 -0.951808 -1.76248
upperback 1.14877 -1.36309 -1.47562
thorax -1.15826 -0.678349 -0.455724
lowerneck -14.5611 -0.720427 2.70639
upperneck 30.8038 -3.06226 3.52298
head 12.6997 -0.60884 0.416253
rclavicle -1.66979e-014 -1.74931e-014
rhumerus 7.24099 45.0096 -60.5521
rradius 87.4727
rwrist 3.35465
rhand 1.28373 -61.6772
rfingers 7.12502
rthumb 26.8194 -89.7954
lclavicle -1.66979e-014 -1.74931e-014
lhumerus 7.08821 -35.646 61.9095
lradius 63.2182
lwrist 8.09875
lhand -5.96023 -47.8049
lfingers 7.12502
lthumb 19.8706 -18.8007
rfemur 0 0 0
rtibia 0
rfoot 0 0
rtoes 0
lfemur -6.00036 -4.75237 -12.0646
ltibia 22.5417
lfoot -23.1819 16.4344
ltoes -54.377
145
root -0.541565 18.7427 5.3316 2.51558 -4.5287 -2.60945
lowerback 4.18475 -1.03787 -1.86196
upperback 1.08756 -1.48334 -1.4724
thorax -1.22052 -0.737582 -0.38989
lowerneck -14.708 -0.62883 2.75361
upperneck 31.0108 -2.96628 3.53032
head 12.816 -0.553617 0.426187
rclavicle 8.74653e-015 -2.38542e-015
rhumerus 7.83035 46.0992 -60.244
rradius 87.7102
rwrist 3.22915
rhand -0.821864 -62.2051
rfingers 7.12502
rthumb 24.8029 -269.383
lclavicle 8.74653e-015 -2.38542e-015
lhumerus 6.89318 -35.634 61.7336
lradius 63.4599
lwrist 8.51542
lhand -5.84259 -48.0048
lfingers 7.12502
lthumb 19.9837 -19.0123
rfemur 0 0 0
rtibia 0
rfoot 0 0
rtoes 0
lfemur -6.07755 -4.92354 -12.0903
ltibia 22.5466
lfoot -23.3275 16.5391
ltoes -54.3434
146
root -0.539739 18.7427 5.33255 2.54916 -4.52749 -2.656
lowerback 4.17125 -1.07857 -1.99969
upperback 1.0623 -1.54284 -1.42847
thorax -1.23363 -0.766759 -0.264779
lowerneck -14.9196 -0.585091 2.8027
upperneck 31.2308 -2.94551 3.54108
head 12.9532 -0.529364 0.42591
rclavicle -8.44835e-015 3.18055e-015
rhumerus 7.17101 46.7235 -61.1278
rradius 87.539
rwrist 3.77631
rhand 1.29456 -62.6424
rfingers 7.12502
rthumb 26.8297 -269.241
lclavicle -8.44835e-015 3.18055e-015
lhumerus 6.76664 -35.7352 61.6449
lradius 63.7377
lwrist 8.93069
lhand -5.97923 -48.0486
lfingers 7.12502
lthumb 19.8523 -19.0426
rfemur 0 0 0
rtibia 0
rfoot 0 0
rtoes 0
lfemur -6.09683 -5.01007 -12.0559
ltibia 22.5354
lfoot -23.3758 16.6135
ltoes -54.3222
147
root -0.546928 18.7405 5.33638 2.45387 -4.46235 -2.63845
lowerback 4.16218 -1.13069 -2.43
upperback 1.1077 -1.62713 -1.31816
thorax -1.16578 -0.80872 0.0922492
lowerneck -15.156 -0.571143 2.80535
upperneck 31.4467 -2.95072 3.53605
head 13.0949 -0.523855 0.423556
rclavicle -1.73937e-014 -2.70347e-014
rhumerus 5.85372 47.3071 -62.6779
rradius 86.9064
rwrist 4.80773
rhand 2.68005 -62.7373
rfingers 7.12502
rthumb 28.1548 -269.357
lclavicle -1.73937e-014 -2.70347e-014
lhumerus 6.57698 -35.7898 61.6878
lradius 64.0463
lwrist 9.30464
lhand -6.25004 -48.1356
lfingers 7.12502
lthumb 19.592 -19.1028
rfemur 0 0 0
rtibia 0
rfoot 0 0
rtoes 0
lfemur -5.97699 -4.91454 -12.0429
ltibia 22.5199
lfoot -23.3216 16.4914
ltoes -54.3932
